<?xml version="1.0" encoding="UTF-8"?>
<!DOCTYPE svg PUBLIC "-//W3C//DTD SVG 1.1//EN" "http://www.w3.org/Graphics/SVG/1.1/DTD/svg11.dtd">
<svg xmlns="http://www.w3.org/2000/svg" version="1.1" width="206px" height="206px" style="shape-rendering:geometricPrecision; text-rendering:geometricPrecision; image-rendering:optimizeQuality; fill-rule:evenodd; clip-rule:evenodd" xmlns:xlink="http://www.w3.org/1999/xlink">
<g><path style="opacity:0.985" fill="#f9f9f9" d="M 44.5,102.5 C 44.5,124.833 44.5,147.167 44.5,169.5C 42.5,169.5 40.5,169.5 38.5,169.5C 32.3453,168.846 28.512,165.513 27,159.5C 25.7298,120.173 25.3965,80.8398 26,41.5C 31.8421,20.6846 45.3421,12.8513 66.5,18C 100.996,37.4138 135.33,57.0805 169.5,77C 182.013,87.7253 184.846,100.559 178,115.5C 176.276,106.447 171.443,99.6133 163.5,95C 129.005,75.92 94.6714,56.5866 60.5,37C 56.6129,33.9702 52.2795,32.9702 47.5,34C 46.1068,35.1711 45.2735,36.6711 45,38.5C 44.5,59.8307 44.3334,81.1641 44.5,102.5 Z"/></g>
<g><path style="opacity:0.995" fill="#fabe31" d="M 69.5,138.5 C 68.5084,131.352 68.175,124.019 68.5,116.5C 68.5,99.8333 68.5,83.1667 68.5,66.5C 90.4182,77.4591 111.752,89.4591 132.5,102.5C 111.635,114.765 90.6354,126.765 69.5,138.5 Z"/></g>
<g><path style="opacity:0.978" fill="#f8f9f9" d="M 165.5,110.5 C 167.592,110.561 169.092,111.561 170,113.5C 173.099,121.423 171.599,128.257 165.5,134C 133.622,153.107 101.288,171.44 68.5,189C 55.9633,191.488 45.4633,187.988 37,178.5C 36.4092,177.517 36.7425,176.85 38,176.5C 46.4575,178.429 54.2909,176.929 61.5,172C 96.3947,151.726 131.061,131.226 165.5,110.5 Z"/></g>
<g><path style="opacity:0.28" fill="#8b7744" d="M 68.5,116.5 C 68.175,124.019 68.5084,131.352 69.5,138.5C 69.44,139.043 69.1067,139.376 68.5,139.5C 67.1801,131.677 67.1801,124.01 68.5,116.5 Z"/></g>
<g><path style="opacity:0.565" fill="#babbbd" d="M 44.5,102.5 C 45.4975,124.994 45.8308,147.661 45.5,170.5C 42.9407,170.802 40.6074,170.468 38.5,169.5C 40.5,169.5 42.5,169.5 44.5,169.5C 44.5,147.167 44.5,124.833 44.5,102.5 Z"/></g>
</svg>
